<?xml version="1.0" encoding="UTF-8"?>
<svg xmlns="http://www.w3.org/2000/svg" viewBox="0 0 480 360" width="720" height="540">
  <defs>
    <linearGradient id="lg" x1="0" x2="0" y1="0" y2="1">
      <stop offset="0%" stop-color="#ffffff"/>
      <stop offset="100%" stop-color="#f6fbff"/>
    </linearGradient>
    <filter id="s" x="-20%" y="-20%" width="140%" height="140%">
      <feDropShadow dx="0" dy="6" stdDeviation="12" flood-color="#cfeaff" flood-opacity="0.6"/>
    </filter>
  </defs>
  <rect width="100%" height="100%" fill="none" />
  <g transform="translate(40,20)" filter="url(#s)">
    <path d="M200 20c-70 0-120 46-120 96v40c0 14 12 18 16 18s12-6 20-6 12 6 20 6 12-6 20-6 12 6 20 6 12-6 20-6 12 6 20 6 12-6 16-18v-40c0-50-50-96-120-96z" fill="url(#lg)" stroke="#e6f3ff" stroke-width="3"/>
    <circle cx="150" cy="120" r="10" fill="#2b2b2b"/>
    <circle cx="250" cy="120" r="10" fill="#2b2b2b"/>
    <g transform="translate(0,14)">
      <path d="M170 170c8 6 16 6 24 0" stroke="#6b6b6b" stroke-width="4" stroke-linecap="round" fill="none" opacity="0.6"/>
    </g>
    <g opacity="0.9">
      <circle cx="120" cy="60" r="8" fill="#ffdce6" opacity="0.9"/>
      <circle cx="280" cy="50" r="6" fill="#e6fff9" opacity="0.9"/>
    </g>
  </g>
</svg>
