<?xml version="1.0" encoding="UTF-8"?>
<svg xmlns="http://www.w3.org/2000/svg" viewBox="0 0 120 120" width="200" height="200">
  <defs>
    <linearGradient id="g2" x1="0" x2="0" y1="0" y2="1">
      <stop offset="0%" stop-color="#fff"/>
      <stop offset="100%" stop-color="#fff0f6"/>
    </linearGradient>
  </defs>
  <g transform="translate(10,8)">
    <path d="M50 10a30 30 0 0 0-30 30v18c0 6 6 6 6 6s4-2 8-2 6 2 10 2 6-2 10-2 6 2 8 2 6-2 6-6V40A30 30 0 0 0 50 10z" fill="url(#g2)" stroke="#ffdfe9" stroke-width="2"/>
    <circle cx="38" cy="36" r="4" fill="#333"/>
    <circle cx="62" cy="36" r="4" fill="#333"/>
    <path d="M44 52c3 2 6 2 9 0" stroke="#666" stroke-width="2" stroke-linecap="round" fill="none" opacity="0.6"/>
  </g>
</svg>
